# xmcd
#
# Track frame offsets:
#	150
#	16222
#	36017
#	58487
#
# Disc length: 937
#
# Revision: 1
# Processed by: cddbd v1.5.1PL0 Copyright (c) Steve Scherf et al.
# Submitted via: dBpowerAMP V4.0
# Normalized: r0:TRMNUM
#
DISCID=2e03a704
DTITLE=Fred and The Healers - Limited
DYEAR=1997
DGENRE=Blues
TTITLE0=Stormy morning
TTITLE1=We Can Get Together
TTITLE2=Not So Bad
TTITLE3=Be Tonic
EXTD=
EXTT0=
EXTT1=
EXTT2=
EXTT3=
PLAYORDER=
